<?xml version="1.0" encoding="utf-8"?>
<!-- Generator: Adobe Illustrator 16.0.0, SVG Export Plug-In . SVG Version: 6.00 Build 0)  -->
<!DOCTYPE svg PUBLIC "-//W3C//DTD SVG 1.1//EN" "http://www.w3.org/Graphics/SVG/1.1/DTD/svg11.dtd">
<svg version="1.1" xmlns="http://www.w3.org/2000/svg" xmlns:xlink="http://www.w3.org/1999/xlink" x="0px" y="0px" width="225px"
	 height="182px" viewBox="0 0 898 729" enable-background="new 0 0 898 729" xml:space="preserve">
<g>
	<polygon fill="#A89187" stroke="#000000" stroke-width="2.252" stroke-linejoin="round" points="844.5,597.871 844.25,589.371 
		843.5,580.625 841.75,571.871 839.5,563.625 836.75,555.625 833.5,547.625 829.75,539.871 825.25,531.871 820.25,524.871 
		814.75,518.371 809,511.625 802.75,505.871 796,500.371 788.5,495.371 781.25,491.125 773.5,487.371 765.5,483.871 757.25,481.125 
		748.75,479.371 740.25,477.371 731.75,476.625 723,476.125 714.25,476.625 705.5,477.371 697.25,479.371 688.5,481.125 
		680.5,483.871 672.5,487.371 664.5,491.125 657.25,495.371 650.25,500.371 643.5,505.871 637,511.625 631,518.371 625.5,524.871 
		620.75,531.871 616.5,539.871 612.25,547.625 609,555.625 606.25,563.625 604,571.871 602.5,580.625 601.5,589.371 601.5,597.871 
		601.5,606.371 602.5,615.125 604,623.871 606.25,632.125 609,640.125 612.25,648.125 616.5,656.125 620.75,663.625 625.5,670.871 
		631,677.371 637,684.125 643.5,689.625 650.25,695.125 657.25,700.125 664.5,704.625 672.5,708.371 680.5,711.871 688.5,714.625 
		697.25,716.871 705.5,718.371 714.25,719.125 723,719.625 731.75,719.125 740.25,718.371 748.75,716.871 757.25,714.625 
		765.5,711.871 773.5,708.371 781.25,704.625 788.5,700.125 796,695.125 802.75,689.625 809,684.125 814.75,677.371 820.25,670.871 
		825.25,663.625 829.75,656.125 833.5,648.125 836.75,640.125 839.5,632.125 841.75,623.871 843.5,615.125 844.25,606.371 
		844.5,597.871 	"/>
	<polygon stroke="#A89187" stroke-width="2.252" stroke-linejoin="round" points="860.5,597.871 860.25,589.371 859.5,580.625 
		857.75,571.871 855.5,563.625 852.75,555.625 849.5,547.625 845.5,539.625 841,531.871 836.25,524.871 830.5,518.371 825,511.625 
		818.5,505.871 811.75,500.371 804.5,495.371 797.25,491.125 789.5,487.371 781.25,483.871 773.25,481.125 764.75,478.871 
		756.25,477.371 747.75,476.625 738.75,476.125 730.25,476.625 721.5,477.371 713,478.871 704.5,481.125 696.25,483.871 
		688.25,487.371 680.5,491.125 673.25,495.371 665.75,500.371 659.25,505.871 653,511.625 647,518.371 641.5,524.871 
		636.75,531.871 632,539.625 628.25,547.625 625,555.625 622.25,563.625 620,571.871 618.5,580.625 617.5,589.371 617.25,597.871 
		617.5,606.371 618.5,615.125 620,623.871 622.25,632.125 625,640.125 628.25,648.625 632,656.125 636.75,663.625 641.5,670.871 
		647,677.371 653,684.125 659.25,689.625 665.75,695.125 673.25,700.125 680.5,704.871 688.25,708.371 696.25,711.871 
		704.5,714.625 713,716.871 721.5,718.371 730.25,719.125 738.75,719.625 747.75,719.125 756.25,718.371 764.75,716.871 
		773.25,714.625 781.25,711.871 789.5,708.371 797.25,704.871 804.5,700.125 811.75,695.125 818.5,689.625 825,684.125 
		830.5,677.371 836.25,670.871 841,663.625 845.5,656.125 849.5,648.625 852.75,640.125 855.5,632.125 857.75,623.871 
		859.5,615.125 860.25,606.371 860.5,597.871 	"/>
	<polygon fill="#A89187" stroke="#000000" stroke-width="2.252" stroke-linejoin="round" points="738.75,597.871 693.5,698.625 
		698,700.125 706.75,703.625 716,706.125 725.5,707.625 734.75,708.125 744.25,708.125 754.25,707.371 763.25,705.371 
		772.5,702.871 781.5,699.625 790.25,695.125 791.5,694.371 795.5,692.125 	"/>
	<polygon fill="#A89187" stroke="#000000" stroke-width="2.252" stroke-linejoin="round" points="742.25,599.371 835.75,655.371 
		838.25,650.871 842.5,642.371 845.75,633.625 848.25,623.871 850,614.871 850.75,605.371 850.75,595.625 850,586.125 
		848.75,576.625 846.25,567.125 843,558.125 842.5,556.371 840.75,552.371 	"/>
	<polygon fill="#FFFFFF" stroke="#000000" stroke-width="2.252" stroke-linejoin="round" points="741,595.625 786.25,495.125 
		782.25,493.371 772.75,489.871 764,487.371 754.25,485.871 745,485.371 735.5,485.371 725.75,486.371 716.75,488.125 
		707.25,490.371 698.5,493.871 690,497.871 688,498.871 684.25,500.871 	"/>
	<polygon fill="#A89187" stroke="#000000" stroke-width="2.252" stroke-linejoin="round" points="737.25,597.625 637.75,552.125 
		636,556.371 632.75,565.625 630.5,574.625 629,584.371 628,593.871 628.25,603.371 629.25,612.871 630.75,622.871 633.25,631.871 
		636.75,640.871 640.75,649.625 641.5,651.371 644,655.125 	"/>
	<polygon fill="none" stroke="#000000" stroke-width="14" stroke-linejoin="round" points="853.25,597.871 852.75,588.371 
		851.5,578.125 849.5,568.625 846.25,559.125 842.75,549.871 838.25,541.371 833,532.625 827,524.871 820.25,517.871 
		813.25,511.125 805.5,505.125 796.75,499.871 788.25,495.125 779.25,491.125 770,488.371 760.5,486.371 750.75,484.871 
		741,484.625 731.25,484.871 721.5,486.371 712,488.371 702.75,491.125 693.5,495.125 685,499.871 676.75,505.125 668.75,511.125 
		661.75,517.871 655,524.871 648.75,532.625 643.75,541.371 639.5,549.871 635.5,559.125 632.75,568.625 630.5,578.125 
		629.25,588.371 628.75,597.871 629.25,608.125 630.5,617.871 632.75,627.371 635.5,636.625 639.5,645.871 643.75,654.871 
		648.75,663.125 655,671.125 661.75,678.125 668.75,684.871 676.75,690.625 685,696.125 693.5,700.871 702.75,704.625 712,707.625 
		721.5,709.871 731.25,710.871 741,711.125 750.75,710.871 760.5,709.871 770,707.625 779.25,704.625 788.25,700.871 
		796.75,696.125 805.5,690.625 813.25,684.871 820.25,678.125 827,671.125 833,663.125 838.25,654.871 842.75,645.871 
		846.25,636.625 849.5,627.371 851.5,617.871 852.75,608.125 	"/>
	<polygon fill="#A89187" stroke="#000000" stroke-width="2.252" stroke-linejoin="round" points="796.5,607.125 796.25,601.125 
		795.5,595.625 793.75,589.625 791.5,584.625 789.25,579.371 785.75,574.371 782.5,569.871 778,565.871 773.5,562.125 769,558.625 
		763.75,556.371 758.25,554.125 752.5,552.871 746.75,551.625 741,551.371 735.25,551.625 729.5,552.871 724,554.125 718.5,556.371 
		713.25,558.625 708.25,562.125 704,565.871 699.75,569.871 696,574.371 693,579.371 690.25,584.625 688.25,589.625 686.75,595.625 
		685.75,601.125 685.75,607.125 685.75,612.871 686.75,618.625 688.25,624.125 690.25,629.871 693,634.871 696,639.625 
		699.75,644.371 704,648.125 708.25,652.125 713.25,655.371 718.5,657.871 724,660.125 729.5,661.371 735.25,662.371 741,662.871 
		746.75,662.371 752.5,661.371 758.25,660.125 763.75,657.871 769,655.371 773.5,652.125 778,648.125 782.5,644.371 785.75,639.625 
		789.25,634.871 791.5,629.871 793.75,624.125 795.5,618.625 796.25,612.871 796.5,607.125 	"/>
	<polygon fill="#A89187" stroke="#000000" stroke-width="2.252" stroke-linejoin="round" points="788.25,597.871 788,592.371 
		787,586.871 785.5,581.625 783.25,576.371 780.5,571.625 777.5,567.125 773.75,563.125 769.5,559.371 765.25,555.871 
		760.25,553.125 755,551.125 749.75,549.625 744.25,548.625 738.75,548.371 733,548.625 728,549.625 722.5,551.125 717.5,553.125 
		712.5,555.871 708,559.371 704,563.125 700.25,567.125 697,571.625 694.5,576.371 692.25,581.625 691,586.871 690,592.371 
		689.5,597.871 690,603.371 691,608.871 692.25,614.125 694.5,619.371 697,624.125 700.25,628.625 704,632.871 708,636.625 
		712.5,639.625 717.5,642.371 722.5,644.625 728,646.125 733,647.125 738.75,647.371 744.25,647.125 749.75,646.125 755,644.625 
		760.25,642.371 765.25,639.625 769.5,636.625 773.75,632.871 777.5,628.625 780.5,624.125 783.25,619.371 785.5,614.125 
		787,608.871 788,603.371 788.25,597.871 	"/>
	<polygon fill="#A89187" stroke="#000000" stroke-width="2.252" stroke-linejoin="round" points="638,551.625 646.25,538.871 
		657.5,522.125 672.5,508.371 684.25,500.125 687.5,505.371 673.25,515.125 662.5,525.871 655.5,536.371 647,549.371 643.5,555.625 
			"/>
	<polygon fill="#A89187" stroke="#000000" stroke-width="2.252" stroke-linejoin="round" points="685.75,500.625 695.75,518.371 
		706.25,513.625 717.25,511.371 731.25,509.871 747.25,510.625 756.25,512.125 770.75,514.625 778,516.625 786.75,493.871 
		770.75,488.625 756.25,485.625 728.5,484.625 711.5,488.625 698.5,493.871 685.25,500.125 	"/>
	<polygon fill="#A89187" stroke="#000000" stroke-width="2.252" stroke-linejoin="round" points="784.5,500.625 799,508.371 
		811,517.371 822.25,529.625 829.5,540.871 834,549.871 835.75,554.625 843.75,550.625 834.75,536.371 827.5,525.871 
		816.25,513.625 805.75,504.625 794.25,497.871 786.75,493.871 	"/>
	<polygon fill="#A89187" stroke="#000000" stroke-width="2.252" stroke-linejoin="round" points="789.25,577.625 842.5,550.625 
		848.25,563.625 852.75,581.871 852.75,595.625 854.25,603.871 791.25,600.125 789.25,578.125 	"/>
	<polygon fill="#A89187" stroke="#000000" stroke-width="2.252" stroke-linejoin="round" points="692.75,576.625 637.25,552.371 
		633.5,563.625 630.5,578.125 630,588.625 630,599.371 689,598.371 690.5,584.125 693.5,576.625 	"/>
	<polygon fill="#A89187" stroke="#000000" stroke-width="2.252" stroke-linejoin="round" points="718.75,673.625 733,676.371 
		748.75,676.371 757.75,676.125 768.25,672.125 780.75,700.125 796,691.125 772.75,653.125 714.5,653.125 695,698.625 
		711.5,704.871 	"/>
	<polygon fill="none" stroke="#000000" stroke-width="14" stroke-linejoin="round" points="777.5,597.871 777.25,594.625 
		776.5,591.125 776,587.871 775.25,584.625 773.75,581.625 772.5,578.625 770.25,575.871 768.25,572.871 765.75,570.625 
		763.75,568.125 761,566.125 758.25,564.371 755.25,562.871 752,561.625 748.75,560.871 746,559.871 742.25,559.371 739,559.371 
		735.75,559.371 732.25,559.871 729.25,560.871 725.75,561.625 722.75,562.871 720,564.371 717.25,566.125 714.5,568.125 
		712,570.625 709.75,572.871 707.75,575.871 706.25,578.625 704.5,581.625 703,584.625 702,587.871 701.5,591.125 701,594.625 
		700.75,597.871 701,601.125 701.5,604.625 702,608.125 703,610.871 704.5,614.125 706.25,617.125 707.75,619.871 709.75,622.871 
		712,625.125 714.5,627.371 717.25,629.371 720,631.371 722.75,632.871 725.75,634.125 729.25,635.371 732.25,636.125 
		735.75,636.371 739,636.625 742.25,636.371 746,636.125 748.75,635.371 752,634.125 755.25,632.871 758.25,631.371 761,629.371 
		763.75,627.371 765.75,625.125 768.25,622.871 770.25,619.871 772.5,617.125 773.75,614.125 775.25,610.871 776,608.125 
		776.5,604.625 777.25,601.125 	"/>
	
		<rect x="131.75" y="437.871" fill="#A80000" stroke="#000000" stroke-width="2.252" stroke-linejoin="round" width="221" height="78"/>
	<polygon fill="#A89187" stroke="#000000" stroke-width="2.252" stroke-linejoin="round" points="332.25,604.625 332.002,596.371 
		331.002,587.871 329.502,579.625 327.502,571.625 324.502,563.625 321.502,555.871 317.502,548.371 313.25,541.371 308.25,534.625 
		303.002,528.125 297.25,521.871 291.002,516.371 284.25,511.125 277.25,506.625 269.75,502.625 262.25,498.871 254.25,496.125 
		246.25,493.625 238.002,491.871 230.002,490.371 221.502,489.871 213.25,489.871 205.002,490.371 196.502,491.871 188.25,493.625 
		180.25,496.125 172.25,498.871 164.75,502.625 157.502,506.625 150.502,511.125 144.002,516.371 137.75,521.871 131.75,528.125 
		126.502,534.625 121.75,541.371 117.25,548.371 113.25,555.871 110.25,563.625 107.502,571.625 105.25,579.625 103.75,587.871 
		102.75,596.371 102.502,604.625 102.75,613.371 103.75,621.371 105.25,629.871 107.502,637.871 110.25,645.871 113.25,653.371 
		117.25,660.871 121.75,668.371 126.502,675.125 131.75,681.625 137.75,687.625 144.002,693.125 150.502,698.371 157.502,702.871 
		164.75,707.125 172.25,710.625 180.25,713.371 188.25,715.871 196.502,717.871 205.002,718.871 213.25,719.625 221.502,719.625 
		230.002,718.871 238.002,717.871 246.25,715.871 254.25,713.371 262.25,710.625 269.75,707.125 277.25,702.871 284.25,698.371 
		291.002,693.125 297.25,687.625 303.002,681.625 308.25,675.125 313.25,668.371 317.502,660.871 321.502,653.371 324.502,645.871 
		327.502,637.871 329.502,629.871 331.002,621.371 332.002,613.371 332.25,604.625 	"/>
	<polygon stroke="#A89187" stroke-width="2.252" stroke-linejoin="round" points="359.502,597.871 359.25,589.371 358.502,580.625 
		356.75,571.871 354.502,563.625 351.75,555.625 348.502,547.625 344.502,539.625 340.25,531.871 335.502,524.871 329.75,518.371 
		324.002,511.625 317.502,505.871 310.75,500.371 303.75,495.371 296.25,491.125 288.25,487.371 280.25,483.871 272.25,481.125 
		263.75,478.871 255.25,477.371 246.25,476.625 238.002,476.125 229.25,476.625 220.502,477.371 212.002,478.871 203.75,481.125 
		195.502,483.871 187.502,487.371 179.75,491.125 172.25,495.371 164.75,500.371 158.25,505.871 152.002,511.625 145.75,518.371 
		140.502,524.871 135.75,531.871 131.002,539.625 127.502,547.625 124.002,555.625 121.25,563.625 119.25,571.871 117.502,580.625 
		116.75,589.371 116.502,597.871 116.75,606.371 117.502,615.125 119.25,623.871 121.25,632.125 124.002,640.125 127.502,648.625 
		131.002,656.125 135.75,663.625 140.502,670.871 145.75,677.371 152.002,684.125 158.25,689.625 164.75,695.125 172.25,700.125 
		179.75,704.871 187.502,708.371 195.502,711.871 203.75,714.625 212.002,716.871 220.502,718.371 229.25,719.125 238.002,719.625 
		246.25,719.125 255.25,718.371 263.75,716.871 272.25,714.625 280.25,711.871 288.25,708.371 296.25,704.871 303.75,700.125 
		310.75,695.125 317.502,689.625 324.002,684.125 329.75,677.371 335.502,670.871 340.25,663.625 344.502,656.125 348.502,648.625 
		351.75,640.125 354.502,632.125 356.75,623.871 358.502,615.125 359.25,606.371 359.502,597.871 	"/>
	<polygon fill="#A89187" stroke="#000000" stroke-width="2.252" stroke-linejoin="round" points="238.002,597.871 192.75,698.625 
		197.002,700.125 206.002,703.625 215.002,706.125 224.75,707.625 233.75,708.125 243.25,708.125 253.25,707.371 262.25,705.371 
		271.25,702.871 280.502,699.625 289.25,695.125 290.75,694.371 294.25,692.125 	"/>
	<polygon fill="#A89187" stroke="#000000" stroke-width="2.252" stroke-linejoin="round" points="241.002,599.371 335.002,655.371 
		337.25,650.871 341.502,642.371 344.75,633.625 347.25,623.871 349.002,614.871 350.002,605.371 350.002,595.625 349.002,586.125 
		347.502,576.625 345.25,567.125 342.002,558.125 341.502,556.371 339.502,552.371 	"/>
	<polygon fill="#FFFFFF" stroke="#000000" stroke-width="2.252" stroke-linejoin="round" points="240.25,595.625 285.502,495.125 
		281.25,493.371 272.25,489.871 263.002,487.371 253.502,485.871 244.002,485.371 234.502,485.371 225.002,486.371 215.75,488.125 
		206.502,490.371 197.502,493.871 189.002,497.871 187.502,498.871 183.25,500.871 	"/>
	<polygon fill="#A89187" stroke="#000000" stroke-width="2.252" stroke-linejoin="round" points="236.25,597.625 137.002,552.125 
		135.25,556.371 132.002,565.625 129.75,574.625 128.002,584.371 127.25,593.871 127.502,603.371 128.25,612.871 130.002,622.871 
		132.75,631.871 135.75,640.871 139.75,649.625 140.502,651.371 143.25,655.125 	"/>
	<polygon fill="none" stroke="#000000" stroke-width="14" stroke-linejoin="round" points="240.002,484.625 230.25,484.871 
		220.502,486.371 211.002,488.371 201.502,491.125 192.75,495.125 184.002,499.871 175.75,505.125 168.002,511.125 160.75,517.871 
		154.002,524.871 148.502,532.625 143.25,541.371 138.502,549.871 134.75,559.125 131.75,568.625 129.75,578.125 128.25,588.371 
		127.502,597.871 128.25,608.125 129.75,617.871 131.75,627.371 134.75,636.625 138.502,645.871 143.25,654.871 148.502,663.125 
		154.002,671.125 160.75,678.125 168.002,684.871 175.75,690.625 184.002,696.125 192.75,700.871 201.502,704.625 211.002,707.625 
		220.502,709.871 230.25,710.871 240.002,711.125 249.75,710.871 259.502,709.871 269.25,707.625 278.25,704.625 287.75,700.871 
		296.25,696.125 304.502,690.625 312.25,684.871 319.75,678.125 326.002,671.125 332.002,663.125 337.25,654.871 341.75,645.871 
		345.502,636.625 348.502,627.371 350.75,617.871 351.75,608.125 352.25,597.871 351.75,588.371 350.75,578.125 348.502,568.625 
		345.502,559.125 341.75,549.871 337.25,541.371 332.002,532.625 326.002,524.871 319.75,517.871 312.25,511.125 304.502,505.125 
		296.25,499.871 287.75,495.125 278.25,491.125 269.25,488.371 259.502,486.371 249.75,484.871 	"/>
	<polygon fill="#A89187" stroke="#000000" stroke-width="2.252" stroke-linejoin="round" points="295.75,607.125 295.502,601.125 
		294.25,595.625 293.002,589.625 290.75,584.625 288.002,579.371 285.002,574.371 281.25,569.871 277.25,565.871 272.502,562.125 
		267.502,558.625 262.25,556.371 257.25,554.125 251.502,552.871 246.002,551.625 240.002,551.371 234.25,551.625 228.25,552.871 
		222.75,554.125 217.502,556.371 212.25,558.625 207.25,562.125 202.75,565.871 198.75,569.871 195.002,574.371 192.002,579.371 
		189.25,584.625 187.002,589.625 185.502,595.625 184.75,601.125 184.25,607.125 184.75,612.871 185.502,618.625 187.002,624.125 
		189.25,629.871 192.002,634.871 195.002,639.625 198.75,644.371 202.75,648.125 207.25,652.125 212.25,655.371 217.502,657.871 
		222.75,660.125 228.25,661.371 234.25,662.371 240.002,662.871 246.002,662.371 251.502,661.371 257.25,660.125 262.25,657.871 
		267.502,655.371 272.502,652.125 277.25,648.125 281.25,644.371 285.002,639.625 288.002,634.871 290.75,629.871 293.002,624.125 
		294.25,618.625 295.502,612.871 295.75,607.125 	"/>
	<polygon fill="#A89187" stroke="#000000" stroke-width="2.252" stroke-linejoin="round" points="287.002,597.871 286.75,592.371 
		285.75,586.871 284.25,581.625 282.25,576.625 279.25,571.625 276.25,567.125 272.502,563.125 268.502,559.371 264.002,555.871 
		259.002,553.625 254.002,551.371 248.502,549.871 243.25,548.871 238.002,548.625 232.25,548.871 226.75,549.871 221.502,551.371 
		216.25,553.625 211.502,555.871 207.002,559.371 202.75,563.125 199.002,567.125 196.002,571.625 193.25,576.625 191.002,581.625 
		189.502,586.871 188.502,592.371 188.25,597.871 188.502,603.371 189.502,608.871 191.002,614.125 193.25,619.371 196.002,623.871 
		199.002,628.625 202.75,632.625 207.002,636.371 211.502,639.625 216.25,642.371 221.502,644.371 226.75,645.871 232.25,646.871 
		238.002,647.125 243.25,646.871 248.502,645.871 254.002,644.371 259.002,642.371 264.002,639.625 268.502,636.371 
		272.502,632.625 276.25,628.625 279.25,623.871 282.25,619.371 284.25,614.125 285.75,608.871 286.75,603.371 287.002,597.871 	"/>
	<polygon fill="#A89187" stroke="#000000" stroke-width="2.252" stroke-linejoin="round" points="137.25,551.625 145.25,538.871 
		156.502,522.125 171.75,508.371 183.25,500.125 186.502,505.371 172.25,515.125 161.75,525.871 154.502,536.371 146.002,549.371 
		142.25,555.625 	"/>
	<polygon fill="#A89187" stroke="#000000" stroke-width="2.252" stroke-linejoin="round" points="185.25,500.625 194.75,518.371 
		205.25,513.625 216.25,511.371 230.75,509.871 246.25,510.625 255.25,512.125 269.502,514.625 277.25,516.625 286.002,493.871 
		269.502,488.625 255.25,485.625 227.502,484.625 210.502,488.625 198.002,493.871 184.25,500.125 	"/>
	<polygon fill="#A89187" stroke="#000000" stroke-width="2.252" stroke-linejoin="round" points="284.002,500.625 298.25,508.371 
		310.002,517.371 321.25,529.625 328.502,540.871 333.002,549.871 334.75,554.625 343.002,550.625 334.002,536.371 326.502,525.871 
		315.25,513.625 304.75,504.625 293.25,497.871 286.002,493.871 	"/>
	<polygon fill="#A89187" stroke="#000000" stroke-width="2.252" stroke-linejoin="round" points="288.25,577.625 341.502,550.625 
		347.25,563.625 351.75,581.871 351.75,595.625 353.502,603.871 290.502,600.125 288.25,578.125 	"/>
	<polygon fill="#A89187" stroke="#000000" stroke-width="2.252" stroke-linejoin="round" points="192.002,576.625 136.25,552.371 
		132.75,563.625 129.75,578.125 129.002,588.625 129.002,599.371 188.002,598.371 189.502,584.125 192.75,576.625 	"/>
	<polygon fill="#A89187" stroke="#000000" stroke-width="2.252" stroke-linejoin="round" points="217.75,673.625 232.25,676.371 
		248.002,676.371 256.75,676.125 267.25,672.125 280.002,700.125 295.002,691.125 272.002,653.125 213.502,653.125 194.002,698.625 
		210.502,704.871 	"/>
	<polygon fill="none" stroke="#000000" stroke-width="14" stroke-linejoin="round" points="276.25,597.871 276.002,594.625 
		276.002,591.125 275.002,587.871 274.25,584.625 272.75,581.625 271.25,578.625 269.502,575.871 267.25,572.871 265.25,570.625 
		262.75,568.125 260.002,566.125 257.25,564.371 254.25,562.871 251.25,561.625 248.002,560.871 245.002,559.871 241.502,559.371 
		238.002,559.371 234.75,559.371 231.25,559.871 228.25,560.871 225.002,561.625 222.002,562.871 219.25,564.371 216.25,566.125 
		214.002,568.125 211.002,570.625 209.002,572.871 207.002,575.871 205.25,578.625 203.75,581.625 202.002,584.625 201.25,587.871 
		200.75,591.125 200.25,594.625 200.002,597.871 200.25,601.125 200.75,604.625 201.25,608.125 202.002,610.871 203.75,614.125 
		205.25,617.125 207.002,619.871 209.002,622.871 211.002,625.125 214.002,627.371 216.25,629.371 219.25,631.371 222.002,632.871 
		225.002,634.125 228.25,635.371 231.25,636.125 234.75,636.371 238.002,636.625 241.502,636.371 245.002,636.125 248.002,635.371 
		251.25,634.125 254.25,632.871 257.25,631.371 260.002,629.371 262.75,627.371 265.25,625.125 267.25,622.871 269.502,619.871 
		271.25,617.125 272.75,614.125 274.25,610.871 275.002,608.125 276.002,604.625 276.002,601.125 	"/>
	<polygon fill="#A80000" stroke="#000000" stroke-width="2.252" stroke-linejoin="round" points="100.502,215.625 70.75,387.871 
		70.75,539.871 114.25,539.871 114.25,467.371 87.502,467.371 87.502,390.125 116.75,215.625 	"/>
	<rect x="210.75" y="366.871" stroke="#A89187" stroke-width="2.252" stroke-linejoin="round" width="162.252" height="25.5"/>
	<polygon points="215.25,371.625 171.502,215.625 210.502,204.625 254.25,360.125 	"/>
	<polygon fill="none" stroke="#A89187" stroke-width="2.252" stroke-linejoin="round" points="215.25,371.625 171.502,215.625 
		210.502,204.625 254.25,360.125 	"/>
	
		<line fill="none" stroke="#000000" stroke-width="2.252" stroke-linejoin="round" x1="170.002" y1="209.125" x2="210.75" y2="380.871"/>
	
		<rect x="57.25" y="209.125" fill="#FFA800" stroke="#000000" stroke-width="2.252" stroke-linejoin="round" width="56.5" height="7.25"/>
	
		<rect x="472.5" y="588.625" fill="#A80000" stroke="#000000" stroke-width="2.252" stroke-linejoin="round" width="54" height="43.5"/>
	
		<rect x="64.25" y="216.375" fill="#FFA800" stroke="#000000" stroke-width="2.252" stroke-linejoin="round" width="33.752" height="6.75"/>
	
		<rect x="10.25" y="584.125" fill="#A80000" stroke="#000000" stroke-width="2.252" stroke-linejoin="round" width="61" height="11.246"/>
	
		<rect x="702.75" y="453.871" fill="#A80000" stroke="#000000" stroke-width="2.252" stroke-linejoin="round" width="124" height="13.5"/>
	<polygon fill="#FF5400" points="360.25,334.871 413.75,244.625 421.502,249.625 367.75,339.625 	"/>
	<polygon fill="none" stroke="#A80000" stroke-width="2.252" stroke-linejoin="round" points="360.25,334.871 413.75,244.625 
		421.502,249.625 367.75,339.625 	"/>
	<polygon fill="#FF5400" points="392.25,298.125 399.25,286.871 409.002,292.371 402.002,303.871 	"/>
	<polygon fill="none" stroke="#A80000" stroke-width="2.252" stroke-linejoin="round" points="392.25,298.125 399.25,286.871 
		409.002,292.371 402.002,303.871 	"/>
	<polygon fill="#FF5400" points="395.25,310.871 409.25,287.371 422.75,295.371 409.002,319.125 	"/>
	<polygon fill="none" stroke="#A80000" stroke-width="2.252" stroke-linejoin="round" points="395.25,310.871 409.25,287.371 
		422.75,295.371 409.002,319.125 	"/>
	
		<line fill="none" stroke="#000000" stroke-width="2.252" stroke-linejoin="round" x1="402.002" y1="330.371" x2="402.002" y2="540.625"/>
	<polygon fill="#A80000" stroke="#000000" stroke-width="2.252" stroke-linejoin="round" points="127.25,56.125 409.25,56.125 
		432.002,28.875 129.75,28.875 	"/>
	<polygon fill="#A80000" stroke="#000000" stroke-width="2.252" stroke-linejoin="round" points="589.5,268.625 576,275.375 
		528.75,460.871 528.75,577.125 542.25,577.125 542.25,467.371 587.5,268.625 	"/>
	
		<rect x="702.75" y="458.871" fill="#FFA800" stroke="#A80000" stroke-width="2.252" stroke-linejoin="round" width="14" height="119"/>
	<polygon fill="#FFA800" stroke="#000000" stroke-width="2.252" stroke-linejoin="round" points="70.75,600.125 70.75,389.871 
		129.75,30.875 432.002,30.875 432.002,10.375 109.002,10.375 30.25,380.871 30.25,565.871 70.75,565.871 	"/>
	
		<rect x="16.75" y="412.871" fill="#FFA800" stroke="#000000" stroke-width="2.252" stroke-linejoin="round" width="69.752" height="27.254"/>
	
		<rect x="10.25" y="547.125" fill="#FFA800" stroke="#000000" stroke-width="2.252" stroke-linejoin="round" width="61" height="36.746"/>
	<polygon fill="#FFA800" stroke="#000000" stroke-width="2.252" stroke-linejoin="round" points="86.502,392.371 115.75,209.125 
		181.25,197.875 231.002,392.371 	"/>
	
		<rect x="113.75" y="463.371" fill="#FFA800" stroke="#000000" stroke-width="2.252" stroke-linejoin="round" width="45.252" height="79.754"/>
	
		<rect x="319.002" y="463.371" fill="#FFA800" stroke="#000000" stroke-width="2.252" stroke-linejoin="round" width="45.248" height="79.754"/>
	
		<rect x="86.502" y="392.371" fill="#FFA800" stroke="#000000" stroke-width="2.252" stroke-linejoin="round" width="296" height="77.254"/>
	<polygon fill="#FFA800" stroke="#000000" stroke-width="2.252" stroke-linejoin="round" points="467.75,545.125 467.75,273.125 
		436.502,273.125 404.75,325.871 404.75,334.871 404.75,545.125 	"/>
	
		<rect x="70.75" y="540.625" fill="#FFA800" stroke="#000000" stroke-width="2.252" stroke-linejoin="round" width="367.752" height="105.246"/>
	
		<rect x="440.75" y="543.125" fill="#FFA800" stroke="#000000" stroke-width="2.252" stroke-linejoin="round" width="31.75" height="98"/>
	
		<rect x="486" y="570.625" fill="#FFA800" stroke="#000000" stroke-width="2.252" stroke-linejoin="round" width="27" height="77.5"/>
	<polygon fill="#FFA800" stroke="#000000" stroke-width="2.252" stroke-linejoin="round" points="542.25,579.625 542.25,472.125 
		589.5,268.625 785.25,292.625 799.5,303.125 801.75,305.125 806.5,309.871 811,314.371 815.25,321.125 824.5,339.625 
		829.75,354.625 828.75,369.125 828.75,453.871 702.75,453.871 702.75,579.625 	"/>
	
		<rect x="528.75" y="579.625" fill="#FFA800" stroke="#000000" stroke-width="2.252" stroke-linejoin="round" width="361" height="64"/>
	
		<line fill="none" stroke="#FFFF54" stroke-width="2.252" stroke-linejoin="round" x1="115.75" y1="14.875" x2="425.002" y2="14.875"/>
	
		<rect x="30.25" y="440.125" fill="#A80000" stroke="#000000" stroke-width="2.252" stroke-linejoin="round" width="38.252" height="11.246"/>
	<polyline fill="none" stroke="#A80000" stroke-width="2.252" stroke-linejoin="round" points="99.002,402.125 99.002,458.871 
		362.002,458.871 	"/>
	
		<line fill="none" stroke="#A80000" stroke-width="2.252" stroke-linejoin="round" x1="100.002" y1="380.871" x2="206.25" y2="380.871"/>
	
		<line fill="none" stroke="#FFFF54" stroke-width="2.252" stroke-linejoin="round" x1="129.75" y1="216.375" x2="168.002" y2="209.125"/>
	<polyline fill="none" stroke="#FFFF54" stroke-width="2.252" stroke-linejoin="round" points="440.75,282.375 459,282.375 
		459,533.871 	"/>
	
		<rect x="71.25" y="637.371" fill="#A80000" stroke="#000000" stroke-width="2.252" stroke-linejoin="round" width="369.752" height="7"/>
	
		<rect x="443.002" y="635.371" fill="#A80000" stroke="#000000" stroke-width="2.252" stroke-linejoin="round" width="29.248" height="6.754"/>
	
		<rect x="438.502" y="542.371" fill="#A80000" stroke="#000000" stroke-width="2.252" stroke-linejoin="round" width="9.748" height="96.754"/>
	<polyline fill="none" stroke="#A80000" stroke-width="2.252" stroke-linejoin="round" points="786,319.125 609.75,298.371 
		569.75,463.371 696,463.371 696,579.625 	"/>
	
		<line fill="none" stroke="#FFFF54" stroke-width="2.252" stroke-linejoin="round" x1="571.75" y1="460.871" x2="696" y2="460.871"/>
	
		<line fill="none" stroke="#FFFF54" stroke-width="2.252" stroke-linejoin="round" x1="530.5" y1="576.625" x2="679.75" y2="576.625"/>
	
		<rect x="531.25" y="636.625" fill="#A80000" stroke="#000000" stroke-width="2.252" stroke-linejoin="round" width="356.5" height="7"/>
	
		<rect x="686.75" y="355.625" fill="#A89187" stroke="#A80000" stroke-width="2.252" stroke-linejoin="round" width="142" height="16"/>
	
		<rect x="686.5" y="387.371" fill="#A89187" stroke="#A80000" stroke-width="2.252" stroke-linejoin="round" width="142.25" height="15.754"/>
	
		<rect x="685.25" y="420.125" fill="#A89187" stroke="#A80000" stroke-width="2.252" stroke-linejoin="round" width="142.25" height="16"/>
	
		<line fill="none" stroke="#FFFF54" stroke-width="2.252" stroke-linejoin="round" x1="596.5" y1="280.125" x2="772.5" y2="303.125"/>
	
		<rect x="317.502" y="469.871" fill="#A80000" stroke="#000000" stroke-width="2.252" stroke-linejoin="round" width="66" height="7"/>
	<polyline fill="none" stroke="#A80000" stroke-width="2.252" stroke-linejoin="round" points="82.75,553.625 82.75,627.625 
		421.002,627.625 	"/>
	<polyline fill="none" stroke="#FFFF54" stroke-width="2.252" stroke-linejoin="round" points="82.75,554.625 420.502,554.625 
		420.502,626.871 	"/>
	<polyline fill="none" stroke="#FFFF54" stroke-width="2.252" stroke-linejoin="round" points="100.002,398.871 366.502,398.871 
		366.502,458.371 	"/>
	
		<rect x="89.502" y="469.625" fill="#A80000" stroke="#A80000" stroke-width="2.252" stroke-linejoin="round" width="86.748" height="7.246"/>
</g>
</svg>
